<?xml version="1.0"?>
<svg xmlns="http://www.w3.org/2000/svg" xmlns:xlink="http://www.w3.org/1999/xlink" version="1.1" id="Layer_1" x="0px" y="0px" viewBox="0 0 512.572 512.572" style="enable-background:new 0 0 512.572 512.572;" xml:space="preserve" width="512px" height="512px" class=""><g><g>
	<g>
		<g>
			<path style="fill:#323296" d="M470.496,430.107c0,0-36.815,20.283-69.457,8.848s-48.753-50.257-48.753-50.257     s36.815-20.283,69.457-8.848S470.496,430.107,470.496,430.107z" data-original="#92DD7A" class="" data-old_color="#92DD7A"/>
			<path style="fill:#323296" d="M503.607,195.13c0,0,5.379,37.006-14.128,56.513s-56.513,14.128-56.513,14.128     s-5.379-37.006,14.128-56.513S503.607,195.13,503.607,195.13z" data-original="#92DD7A" class="" data-old_color="#92DD7A"/>
			<path style="fill:#323296" d="M470.516,105.272c0,0,12.351,31.128-0.604,52.164c-12.955,21.036-46.311,24.015-46.311,24.015     s-12.351-31.128,0.604-52.164C437.16,108.25,470.516,105.272,470.516,105.272z" data-original="#92DD7A" class="" data-old_color="#92DD7A"/>
			<path style="fill:#323296" d="M393.342,50.451c0,0,23.11,16.794,22.664,36.912s-22.664,35.943-22.664,35.943     s-21.495-16.794-21.049-36.912C372.739,66.275,393.342,50.451,393.342,50.451z" data-original="#92DD7A" class="" data-old_color="#92DD7A"/>
			<path style="fill:#323296" d="M336.345,29.451c0,0,15.811,9.985,16.882,23.738s-13.001,26.067-13.001,26.067     s-15.811-9.985-16.882-23.738S336.345,29.451,336.345,29.451z" data-original="#92DD7A" class="" data-old_color="#92DD7A"/>
			<path style="fill:#323296" d="M503.493,310.449c0,0-14.667,35.019-41.843,41.797c-27.176,6.778-56.57-17.251-56.57-17.251     s14.667-35.019,41.843-41.797C474.099,286.42,503.493,310.449,503.493,310.449z" data-original="#92DD7A" class="" data-old_color="#92DD7A"/>
			<path style="fill:#323296" d="M42.076,430.107c0,0,36.815,20.283,69.457,8.848s48.753-50.257,48.753-50.257     s-36.815-20.283-69.457-8.848S42.076,430.107,42.076,430.107z" data-original="#92DD7A" class="" data-old_color="#92DD7A"/>
			<path style="fill:#323296" d="M8.966,195.13c0,0-5.379,37.006,14.128,56.513s56.513,14.128,56.513,14.128     s5.379-37.006-14.128-56.513S8.966,195.13,8.966,195.13z" data-original="#92DD7A" class="" data-old_color="#92DD7A"/>
			<path style="fill:#323296" d="M42.056,105.272c0,0-12.351,31.128,0.604,52.164s46.311,24.015,46.311,24.015     s12.351-31.128-0.604-52.164S42.056,105.272,42.056,105.272z" data-original="#92DD7A" class="" data-old_color="#92DD7A"/>
			<path style="fill:#323296" d="M119.23,50.451c0,0-23.11,16.794-22.664,36.912c0.446,20.118,22.664,35.943,22.664,35.943     s21.495-16.794,21.049-36.912C139.833,66.275,119.23,50.451,119.23,50.451z" data-original="#92DD7A" class="" data-old_color="#92DD7A"/>
			<path style="fill:#323296" d="M176.227,29.451c0,0-15.811,9.985-16.882,23.738s13.001,26.067,13.001,26.067     s15.811-9.985,16.882-23.738S176.227,29.451,176.227,29.451z" data-original="#92DD7A" class="" data-old_color="#92DD7A"/>
			<path style="fill:#323296" d="M9.08,310.449c0,0,14.667,35.019,41.843,41.797c27.176,6.778,56.57-17.251,56.57-17.251     s-14.667-35.019-41.843-41.797C38.474,286.42,9.08,310.449,9.08,310.449z" data-original="#92DD7A" class="" data-old_color="#92DD7A"/>
		</g>
		<path style="fill:#5D6468" d="M346.286,209.451v102c0,0-4.86,0-12.21,0h-27.19c-19.98,0-37.47,11.62-47.1,29h-7    c-4.82-8.69-11.6-15.94-19.67-21.02c-8.07-5.08-17.44-7.98-27.43-7.98c-19.97,0-39.4,0-39.4,0v-102H346.286z" data-original="#5D6468" class="" data-old_color="#323296"/>
		<polygon style="fill:#40484F" points="346.286,209.451 346.286,247.151 256.316,293.171 166.286,246.831 166.286,209.451   " data-original="#40484F" class="" data-old_color="#323296"/>
		<polygon style="fill:#5D6468" points="256.363,259.451 121.786,190.182 121.786,184.451 391.786,184.451 391.786,190.182   " data-original="#5D6468" class="" data-old_color="#323296"/>
		<g>
			<path style="fill:#494991" d="M470.496,430.107c0,0-36.815,20.283-69.457,8.848s-48.753-50.257-48.753-50.257L470.496,430.107z" data-original="#72CC50" class="active-path" data-old_color="#72CC50"/>
			<path style="fill:#494991" d="M42.076,430.107c0,0,36.815,20.283,69.457,8.848s48.753-50.257,48.753-50.257L42.076,430.107z" data-original="#72CC50" class="active-path" data-old_color="#72CC50"/>
			<path style="fill:#494991" d="M503.493,310.449c0,0-14.667,35.019-41.843,41.797c-27.176,6.778-56.57-17.251-56.57-17.251     L503.493,310.449z" data-original="#72CC50" class="active-path" data-old_color="#72CC50"/>
			<path style="fill:#494991" d="M9.08,310.449c0,0,14.667,35.019,41.843,41.797c27.176,6.778,56.57-17.251,56.57-17.251     L9.08,310.449z" data-original="#72CC50" class="active-path" data-old_color="#72CC50"/>
			<path style="fill:#494991" d="M503.607,195.13c0,0,5.379,37.006-14.128,56.513s-56.513,14.128-56.513,14.128L503.607,195.13z" data-original="#72CC50" class="active-path" data-old_color="#72CC50"/>
			<path style="fill:#494991" d="M8.966,195.13c0,0-5.379,37.006,14.128,56.513s56.513,14.128,56.513,14.128L8.966,195.13z" data-original="#72CC50" class="active-path" data-old_color="#72CC50"/>
			<path style="fill:#494991" d="M470.516,105.272c0,0,12.351,31.128-0.604,52.164c-12.955,21.036-46.311,24.015-46.311,24.015     L470.516,105.272z" data-original="#72CC50" class="active-path" data-old_color="#72CC50"/>
			<path style="fill:#494991" d="M42.056,105.272c0,0-12.351,31.128,0.604,52.164s46.311,24.015,46.311,24.015L42.056,105.272z" data-original="#72CC50" class="active-path" data-old_color="#72CC50"/>
			<path style="fill:#494991" d="M393.342,50.451c0,0,23.11,16.794,22.664,36.912s-22.664,35.943-22.664,35.943V50.451z" data-original="#72CC50" class="active-path" data-old_color="#72CC50"/>
			<path style="fill:#494991" d="M119.23,50.451c0,0-23.11,16.794-22.664,36.912c0.446,20.118,22.664,35.943,22.664,35.943V50.451z     " data-original="#72CC50" class="active-path" data-old_color="#72CC50"/>
		</g>
	</g>
	<g>
		<rect x="249.286" y="213.451" style="fill:#FFFFFF" width="15" height="15" data-original="#FFFFFF" class=""/>
		<rect x="188.786" y="272.451" style="fill:#FFFFFF" width="31.5" height="15" data-original="#FFFFFF" class=""/>
	</g>
	<g>
		<path d="M508.24,304.643c-1.007-0.823-24.95-20.149-51.198-20.149c-4.122,0-8.137,0.48-11.934,1.428    c-4.282,1.068-8.264,2.731-11.965,4.781c1.644-5.58,3.035-11.246,4.154-16.987c1.995,0.131,4.457,0.236,7.249,0.236    c15.16,0,36.182-2.95,50.236-17.004s17.004-35.076,17.004-50.237c0-7.361-0.727-12.446-0.758-12.659l-0.805-5.538l-5.538-0.805    c-0.213-0.031-5.297-0.758-12.658-0.758c-15.16,0-36.182,2.95-50.236,17.004c-1.208,1.208-2.328,2.471-3.378,3.774    c-1.112-6.927-2.609-13.738-4.465-20.413c12.036-2.659,32.179-9.431,42.351-25.947c4.667-7.578,7.033-16.846,7.033-27.549    c0-16.399-5.605-30.713-5.844-31.314l-2.064-5.202l-5.574,0.498c-1.515,0.135-37.272,3.588-52.03,27.552    c-2.412,3.916-4.196,8.293-5.37,13.077c-2.893-4.645-5.981-9.16-9.261-13.53c7.48-6.763,19.943-20.519,20.317-37.367    c0.006-0.25,0.008-0.499,0.008-0.747c0-23.414-24.71-41.639-25.762-42.404l-4.534-3.294l-4.444,3.414    c-0.958,0.735-23.459,18.283-23.979,41.731c-0.003,0.158-0.004,0.316-0.005,0.474c-4.222-3.133-8.584-6.094-13.077-8.872    c4.296-5.516,9.074-13.756,9.074-23.139c0-0.699-0.027-1.403-0.081-2.09c-1.326-17.013-18.412-28.27-20.355-29.497l-4.732-2.988    l-4.211,3.685c-1.599,1.399-15.621,14.132-15.621,30.205c0,0.699,0.027,1.403,0.081,2.09c0.13,1.672,0.418,3.287,0.823,4.844    c-8.847-3.174-18.021-5.712-27.475-7.547l-2.857,14.726c35.462,6.882,66.653,24.465,90.493,48.998    c2.686,3.391,5.362,6.184,7.498,8.23c12.072,14.132,21.867,30.2,28.9,47.599c1.538,6.559,3.252,10.94,3.382,11.267l2.064,5.202    l0.258-0.023c4.454,15.323,6.834,31.461,6.834,48.055c0,0.736-0.019,1.468-0.028,2.201c-0.714,5.135-0.972,10.09-0.972,14.539    c0,0.564,0.005,1.11,0.013,1.647c-2.399,22.435-9.133,43.614-19.347,62.678c-2.07,3.272-3.698,6.219-4.889,8.535    c-29.857,48.832-83.289,81.821-144.257,82.863c-61-1.042-114.446-34.037-144.305-82.878c-1.19-2.312-2.813-5.248-4.874-8.509    c-10.218-19.066-16.955-40.249-19.354-62.688c0.008-0.536,0.013-1.082,0.013-1.647c0-4.449-0.258-9.405-0.972-14.539    c-0.009-0.734-0.028-1.466-0.028-2.201c0-16.594,2.38-32.732,6.834-48.055l0.258,0.023l2.064-5.202    c0.13-0.327,1.844-4.708,3.382-11.267c7.033-17.399,16.828-33.466,28.9-47.599c2.136-2.046,4.811-4.839,7.498-8.23    c23.84-24.533,55.032-42.116,90.493-48.998l-2.857-14.726c-9.454,1.835-18.628,4.373-27.475,7.547    c0.405-1.556,0.692-3.169,0.822-4.84c0.054-0.69,0.082-1.395,0.082-2.094c0-16.073-14.022-28.806-15.621-30.205l-4.211-3.685    l-4.732,2.988c-1.944,1.228-19.029,12.484-20.355,29.493c-0.054,0.69-0.082,1.395-0.082,2.094c0,9.383,4.778,17.623,9.074,23.139    c-4.493,2.779-8.855,5.739-13.077,8.872c-0.001-0.159-0.002-0.317-0.005-0.48c-0.52-23.441-23.021-40.989-23.979-41.725    l-4.444-3.414l-4.534,3.294c-1.052,0.765-25.762,18.99-25.762,42.404c0,0.249,0.002,0.498,0.008,0.742    c0.374,16.852,12.837,30.608,20.317,37.372c-3.28,4.37-6.368,8.885-9.261,13.53c-1.174-4.784-2.958-9.161-5.37-13.078    c-14.758-23.963-50.515-27.417-52.03-27.552l-5.574-0.498l-2.064,5.202c-0.239,0.601-5.844,14.915-5.844,31.314    c0,10.703,2.366,19.971,7.033,27.549c10.171,16.516,30.314,23.288,42.35,25.947c-1.856,6.674-3.353,13.486-4.465,20.413    c-1.049-1.303-2.169-2.566-3.378-3.774c-14.054-14.054-35.076-17.004-50.236-17.004c-7.361,0-12.445,0.727-12.658,0.758    l-5.538,0.805l-0.805,5.538c-0.031,0.213-0.758,5.297-0.758,12.659c0,15.161,2.95,36.183,17.004,50.236    C31.845,271,52.867,273.951,68.027,273.951c2.792,0,5.254-0.105,7.249-0.236c1.119,5.741,2.51,11.406,4.154,16.987    c-3.702-2.049-7.683-3.712-11.965-4.78c-3.797-0.947-7.813-1.428-11.935-1.428c-26.248,0-50.191,19.327-51.198,20.149L0,308.185    l2.162,5.162c0.659,1.571,16.471,38.575,46.946,46.176c3.799,0.948,7.814,1.428,11.935,1.428c18.527,0,35.894-9.624,44.869-15.578    c6.066,8.583,12.891,16.721,20.452,24.32c0.086,0.087,0.176,0.17,0.262,0.257c-4.511-0.679-9.243-1.095-14.093-1.095    c-8.626,0-16.763,1.318-24.183,3.917c-35.399,12.4-52.49,52.75-53.2,54.461l-2.574,6.203l5.882,3.241    c0.984,0.542,24.404,13.274,51.373,13.274c8.626,0,16.763-1.318,24.183-3.917c26.718-9.359,42.999-34.63,49.687-47.203    c14.044,8.349,29.087,14.798,44.813,19.194c-1.294,0.535-2.584,1.092-3.863,1.696c-18.364,8.678-30.877,22.641-37.192,41.5    l14.224,4.763c11.955-35.703,49.994-41.034,71.605-41.034c1.967,0,4.005,0,6,0c21.611,0,59.65,5.331,71.605,41.034l14.224-4.763    c-6.315-18.86-18.828-32.823-37.192-41.5c-1.277-0.603-2.566-1.16-3.858-1.694c15.722-4.396,30.764-10.845,44.808-19.196    c6.688,12.573,22.97,37.844,49.687,47.203c7.42,2.599,15.556,3.917,24.183,3.917c26.969,0,50.389-12.732,51.373-13.274    l5.882-3.241l-2.574-6.203c-0.71-1.711-17.801-42.061-53.2-54.461c-7.42-2.599-15.556-3.917-24.183-3.917    c-4.85,0-9.582,0.416-14.093,1.095c0.087-0.087,0.176-0.17,0.262-0.257c7.561-7.599,14.386-15.737,20.452-24.32    c8.975,5.954,26.342,15.578,44.869,15.578c4.12,0,8.136-0.48,11.935-1.428c30.475-7.601,46.287-44.604,46.946-46.176l2.162-5.162    L508.24,304.643z M337.135,39.561c3.831,3.513,8.191,8.77,8.616,14.214c0.024,0.308,0.036,0.615,0.036,0.921    c0,5.181-3.276,10.607-6.349,14.45c-3.832-3.513-8.192-8.77-8.617-14.215c-0.024-0.308-0.036-0.615-0.036-0.921    C330.786,48.832,334.059,43.408,337.135,39.561z M425.786,152.902c0-7.883,1.617-14.505,4.805-19.683    c7.836-12.725,25.546-17.753,34.771-19.563c1.354,4.828,2.968,12.246,2.968,20.164c0,7.884-1.617,14.506-4.805,19.683    c-7.68,12.471-24.838,17.547-34.199,19.449c-0.556-1.513-1.135-3.015-1.729-4.51C426.624,164.039,425.786,158.603,425.786,152.902    z M379.791,86.56c0.244-11.009,8.443-20.921,13.731-26.188c6.373,5.924,14.99,16.218,14.99,26.416l-0.004,0.409    c-0.242,10.928-9.116,20.817-14.814,26.061c-1.769-2.003-3.581-3.969-5.435-5.896c-4.33-5.533-8.474-12.794-8.474-20.349    L379.791,86.56z M166.822,53.771c0.424-5.45,4.752-10.681,8.614-14.21c3.053,3.829,6.351,9.276,6.351,14.45    c0,0.306-0.012,0.613-0.036,0.925c-0.425,5.452-4.756,10.686-8.613,14.211c-3.053-3.829-6.352-9.277-6.352-14.451    C166.786,54.391,166.797,54.083,166.822,53.771z M104.064,87.191l-0.004-0.404c0-10.198,8.617-20.492,14.99-26.417    c5.289,5.268,13.487,15.178,13.731,26.183l0.005,0.458c0,7.479-3.994,14.621-8.237,20.101c-1.932,2.001-3.818,4.046-5.659,6.13    C113.193,107.972,104.305,98.042,104.064,87.191z M49.046,153.503c-3.188-5.178-4.805-11.8-4.805-19.684    c0-7.863,1.622-15.31,2.979-20.162c9.228,1.812,26.927,6.841,34.761,19.561c3.188,5.178,4.805,11.8,4.805,19.683    c0,5.698-0.853,11.172-1.838,15.603c-0.584,1.474-1.155,2.955-1.703,4.446C73.878,171.049,56.725,165.972,49.046,153.503z     M72.674,258.839c-1.37,0.066-2.935,0.112-4.647,0.112c-10.091,0-28.657-1.638-39.63-12.611    c-10.973-10.971-12.611-29.539-12.611-39.629c0-1.713,0.045-3.278,0.112-4.647c1.37-0.066,2.935-0.112,4.647-0.112    c10.091,0,28.657,1.638,39.63,12.611c7.111,7.11,10.29,17.403,11.655,26.519c0.099,5.22,0.406,10.405,0.925,15.545    C72.736,257.409,72.708,258.149,72.674,258.839z M61.042,345.951c-2.897,0-5.692-0.331-8.305-0.982    c-17.282-4.311-29.174-22.89-34.141-32.146c7.339-4.908,22.096-13.33,36.934-13.33c2.899,0,5.693,0.33,8.304,0.981    c13.126,3.274,23.138,14.777,29.372,24.175c1.446,2.746,2.96,5.459,4.546,8.135C90.37,337.709,75.814,345.951,61.042,345.951z     M109.054,431.877c-5.822,2.039-12.29,3.073-19.224,3.073c-15.299,0-29.674-4.996-37.654-8.378    c5.85-10.797,19.716-32.142,41.132-39.644c5.822-2.039,12.29-3.073,19.224-3.073c15.302,0,29.679,4.997,37.654,8.378    C144.337,403.029,130.472,424.375,109.054,431.877z M419.264,386.928c21.425,7.505,35.293,28.863,41.138,39.656    c-7.949,3.381-22.279,8.367-37.66,8.367c-6.934,0-13.401-1.034-19.224-3.073c-21.427-7.506-35.296-28.868-41.139-39.656    c7.949-3.381,22.28-8.367,37.661-8.367C406.974,383.855,413.442,384.889,419.264,386.928z M452.397,214.562    c10.973-10.973,29.539-12.611,39.63-12.611c1.712,0,3.278,0.045,4.647,0.112c0.066,1.37,0.112,2.935,0.112,4.647    c0,10.091-1.638,28.658-12.611,39.63c-10.973,10.973-29.539,12.611-39.63,12.611c-1.712,0-3.278-0.045-4.647-0.112    c-0.033-0.69-0.062-1.43-0.081-2.213c0.519-5.14,0.827-10.325,0.925-15.545C442.107,231.965,445.286,221.672,452.397,214.562z     M459.835,344.969c-2.613,0.651-5.407,0.982-8.305,0.982c-14.695,0-29.298-8.255-36.704-13.179    c1.582-2.671,3.094-5.378,4.537-8.119c6.234-9.4,16.248-20.904,29.375-24.179c2.611-0.651,5.405-0.981,8.304-0.981    c14.866,0,29.651,8.454,36.976,13.357C488.3,323.541,476.012,340.934,459.835,344.969z" data-original="#000000" class="" style="fill:#000000" data-old_color="#FFFFFF"/>
		<path d="M162.786,492.451l15-0.001c0-4.626,0.29-9.083,0.863-13.249l-14.86-2.044    C163.123,481.998,162.786,487.144,162.786,492.451z" data-original="#000000" class="" style="fill:#000000" data-old_color="#FFFFFF"/>
		<path d="M333.923,479.201c0.573,4.166,0.863,8.623,0.863,13.249l15,0.001c0-5.308-0.337-10.453-1.002-15.294L333.923,479.201z" data-original="#000000" class="" style="fill:#000000" data-old_color="#FFFFFF"/>
		<rect x="128.786" y="281.451" width="15" height="15" data-original="#000000" class="" style="fill:#000000" data-old_color="#FFFFFF"/>
		<path d="M294.698,176.951H114.286v17.806l14.5,7.463v64.231h15v-56.51l15,7.721v101.289h46.903    c16.659,0,31.813,9.396,40.537,25.136l2.142,3.864h15.836l2.142-3.864c8.724-15.739,23.878-25.136,40.537-25.136h46.903V218.043    l45.5-23.273v-17.819h-89.588v15h62.16l-115.484,59.07l-114.763-59.07h153.087V176.951z M338.786,225.715v78.235h-31.903    c-20.003,0-38.919,10.545-50.597,27.868c-11.678-17.323-30.593-27.868-50.597-27.868h-31.903v-78.569l82.566,42.498    L338.786,225.715z" data-original="#000000" class="" style="fill:#000000" data-old_color="#FFFFFF"/>
		<rect x="218.286" y="130.951" width="15" height="15" data-original="#000000" class="" style="fill:#000000" data-old_color="#FFFFFF"/>
		<rect x="278.286" y="130.951" width="15" height="15" data-original="#000000" class="" style="fill:#000000" data-old_color="#FFFFFF"/>
		<rect x="248.286" y="130.951" width="15" height="15" data-original="#000000" class="" style="fill:#000000" data-old_color="#FFFFFF"/>
	</g>
</g></g> </svg>
